<svg width="106px" height="45px" viewBox="0 0 106 45" version="1.1" xmlns="http://www.w3.org/2000/svg" xmlns:xlink="http://www.w3.org/1999/xlink">
    <g id="Desktop" stroke="none" stroke-width="1" fill="none" fill-rule="evenodd">
        <g id="Artboard" transform="translate(-27.000000, -9.000000)">
            <g id="logo" transform="translate(27.000000, 9.000000)">
                <g id="image2vector">
                    <path d="M7.89789474,11.7560704 C7.89789474,11.7804874 8.1467,12.4514171 8.45074737,13.2470251 C8.75501053,14.0426332 9.39957368,15.7436181 9.88315789,17.0271357 C11.7816737,22.0648342 12.7641632,24.6664422 13.0494368,25.4110553 C13.2134368,25.8388945 13.4385053,26.4417588 13.5496368,26.7507538 C13.6607684,27.0597487 13.9324474,27.7792965 14.1536316,28.3497487 C15.4136263,31.6013266 15.3868684,31.4978241 15.1138947,32.056392 C13.9652474,34.4073467 11.2732737,37.216608 9.38166316,38.0385779 C8.61172632,38.3730704 8.59705263,38.4037538 8.87585263,39.0911055 C9.43345263,40.4651608 10.7560263,41.5706281 11.5725737,41.3452563 C13.1577632,40.9076935 15.4969211,38.922995 16.9442211,36.7876884 C18.7482211,34.1262261 20.0982,30.9602161 23.2685789,21.9537688 C23.4025842,21.5734673 23.6844053,20.7761307 23.8948,20.1819095 C25.7710895,14.8870754 26.8010526,11.9263417 26.8010526,11.8282412 C26.8010526,11.7331658 26.3778895,11.7115578 24.5177842,11.7115578 L22.2345158,11.7115578 L22.1533789,11.9924623 C22.1087105,12.1469598 21.6976316,13.5568844 21.2399421,15.1256281 C20.7820368,16.6943719 20.2887421,18.3862814 20.1437316,18.8854271 C19.9987211,19.3845729 19.7695526,20.1624623 19.6346842,20.6140704 C19.1191632,22.3401206 18.7723895,23.5616231 18.3833211,25.0221106 C17.8142842,27.1587136 17.7266737,27.4597136 17.6854579,27.4184422 C17.6653895,27.3983467 17.4739842,26.724608 17.2599211,25.921005 C16.8894105,24.5290151 16.3866211,22.8809698 15.6673947,20.7005025 C15.4869947,20.1538191 14.7502895,17.9076633 14.0299842,15.7090452 L12.7203579,11.7115578 L10.3091263,11.7115578 C8.98288421,11.7115578 7.89789474,11.7316533 7.89789474,11.7560704 M32.5842105,11.9641558 C23.7644632,13.6876131 23.3989158,27.0264724 32.1103368,29.2575025 C38.9771895,31.0161809 44.6285,25.8717387 43.4764,18.9109246 C42.6488474,13.9110402 37.9517579,10.9153015 32.5842105,11.9641558 M35.8583842,15.4752462 C39.5127789,16.3378392 40.6318632,22.180005 37.6638947,24.9008894 C35.2233158,27.138402 31.1794211,25.8397588 30.2618842,22.524005 C29.0936,18.3022261 32.0516421,14.5767839 35.8583842,15.4752462" id="path0" fill="#FFFFFF"></path>
                    <path d="M14.2421053,5.45559799 C13.8623158,5.52409548 13.5386316,5.61787437 13.5228789,5.6638995 C13.5069105,5.70992462 13.4391526,5.74773869 13.3720421,5.74773869 C13.2002737,5.74773869 12.1931842,6.09843719 12.0591789,6.20496482 C11.9978947,6.25358291 11.7555632,6.38236683 11.521,6.49127136 C11.2862211,6.60017588 11.0085,6.76915075 10.9040579,6.8668191 C10.7994,6.96427136 10.6725158,7.04486935 10.6222368,7.04594975 C10.5717421,7.04681407 10.3755895,7.18294472 10.1861263,7.34846231 C9.99687895,7.51376382 9.82079474,7.64924623 9.7949,7.64924623 C9.65226316,7.64924623 7.90134737,9.53670854 7.89918947,9.69271859 C7.89854211,9.74717085 7.84135789,9.81329146 7.77230526,9.83986935 C7.70325263,9.86644724 7.56212632,10.0553015 7.45854737,10.2597136 C7.35518421,10.4639095 7.23908947,10.6514673 7.20089474,10.6763166 C7.1627,10.7011658 7.03797368,10.9230804 6.92382105,11.1698442 C6.80988421,11.416392 6.67674211,11.6683417 6.62818947,11.7297085 C6.57963684,11.7910754 6.45534211,12.0745729 6.35197895,12.359799 C6.24861579,12.6450251 6.10231053,13.0121457 6.02656842,13.1755025 C5.95104211,13.3388593 5.80344211,13.8833819 5.69835263,14.3855528 C5.59347895,14.8877236 5.47242105,15.3762814 5.42947895,15.4713568 C5.29914211,15.7604724 5.32848947,32.6493166 5.45947368,32.6929648 C5.51881579,32.7128442 5.5678,32.8327688 5.56823158,32.959392 C5.56931053,33.2977739 5.98276316,35.066608 6.0844,35.1683819 C6.19661053,35.2807437 6.19704211,35.7842111 6.08504737,35.9784673 C6.03757368,36.0610101 5.88220526,36.3814573 5.73956842,36.6904523 C4.879,38.5569548 2.88359474,41.1596432 1.92484211,41.6667839 C1.79666316,41.7344171 1.66071579,41.8392161 1.62273684,41.8995025 C1.55282105,42.0105678 0.716852632,42.4961005 0.280526316,42.6791206 C0.149973684,42.7337889 0.0431578947,42.8096332 0.0431578947,42.8476633 C0.0431578947,42.8856935 8.13202632,42.9049246 18.0184211,42.8902312 C36.2204789,42.8636533 36.3247053,42.8617085 36.9431579,42.5695678 C37.0381053,42.5248392 37.3488421,42.4226332 37.6336842,42.3428995 C38.3891632,42.1311407 39.893,41.3111156 40.5466263,40.7544925 C40.6314316,40.6823216 40.8377263,40.5064322 41.0047474,40.3638191 C41.6564316,39.8076281 42.6028842,38.7911859 42.8052947,38.4303317 C42.8486684,38.3527588 42.9103842,38.27 42.9421053,38.2462312 C42.9740421,38.2224623 43.1115,38.0085427 43.2474474,37.7708543 C43.3836105,37.5331658 43.5182632,37.3192462 43.5467474,37.2954774 C43.6589579,37.2021307 44.3251,35.7563367 44.4627737,35.3075377 C44.5428316,35.0460804 44.6360526,34.7932663 44.6697158,34.7457286 C44.8347947,34.5132261 45.1845895,32.5942161 45.1856684,31.9150754 C45.1861,31.6892714 45.2251579,31.5045226 45.2726316,31.5045226 C45.3296,31.5045226 45.3589474,28.9692513 45.3589474,24.0713568 C45.3589474,19.1734623 45.3296,16.638191 45.2726316,16.638191 C45.2251579,16.638191 45.1863158,16.4670553 45.1863158,16.2578894 C45.1863158,15.7362714 44.8686737,13.9166583 44.7191316,13.5830302 C44.6522368,13.4330704 44.5296684,13.0966332 44.4472368,12.8351759 C44.2929474,12.3466181 43.6770842,11.0211809 43.5657368,10.9373417 C43.5312105,10.9116281 43.4105842,10.7154271 43.2972947,10.5015075 C43.1842211,10.2875879 43.0476263,10.0736683 42.9941105,10.0261307 C42.9403789,9.97859296 42.8232053,9.82301508 42.7336526,9.68040201 C42.3413474,9.05636181 40.3772316,7.13065327 40.1329579,7.13065327 C40.0967053,7.13065327 39.9467316,7.04076382 39.7997789,6.93099497 C39.1606105,6.45280905 37.6220316,5.74773869 37.2178579,5.74773869 C37.1380158,5.74773869 37.0726316,5.71294975 37.0726316,5.67038191 C37.0726316,5.30045226 16.1913316,5.10425126 14.2421053,5.45559799 M14.0299842,15.7090452 C14.7502895,17.9076633 15.4869947,20.1538191 15.6673947,20.7005025 C16.3866211,22.8809698 16.8894105,24.5290151 17.2599211,25.921005 C17.4739842,26.724608 17.6653895,27.3983467 17.6854579,27.4184422 C17.7266737,27.4597136 17.8142842,27.1587136 18.3833211,25.0221106 C18.7723895,23.5616231 19.1191632,22.3401206 19.6346842,20.6140704 C19.7695526,20.1624623 19.9987211,19.3845729 20.1437316,18.8854271 C20.2887421,18.3862814 20.7820368,16.6943719 21.2399421,15.1256281 C21.6976316,13.5568844 22.1087105,12.1469598 22.1533789,11.9924623 L22.2345158,11.7115578 L24.5177842,11.7115578 C26.3778895,11.7115578 26.8010526,11.7331658 26.8010526,11.8282412 C26.8010526,11.9263417 25.7710895,14.8870754 23.8948,20.1819095 C23.6844053,20.7761307 23.4025842,21.5734673 23.2685789,21.9537688 C20.0982,30.9602161 18.7482211,34.1262261 16.9442211,36.7876884 C15.4969211,38.922995 13.1577632,40.9076935 11.5725737,41.3452563 C10.7560263,41.5706281 9.43345263,40.4651608 8.87585263,39.0911055 C8.59705263,38.4037538 8.61172632,38.3730704 9.38166316,38.0385779 C11.2732737,37.216608 13.9652474,34.4073467 15.1138947,32.056392 C15.3868684,31.4978241 15.4136263,31.6013266 14.1536316,28.3497487 C13.9324474,27.7792965 13.6607684,27.0597487 13.5496368,26.7507538 C13.4385053,26.4417588 13.2134368,25.8388945 13.0494368,25.4110553 C12.7641632,24.6664422 11.7816737,22.0648342 9.88315789,17.0271357 C9.39957368,15.7436181 8.75501053,14.0426332 8.45074737,13.2470251 C8.1467,12.4514171 7.89789474,11.7804874 7.89789474,11.7560704 C7.89789474,11.7316533 8.98288421,11.7115578 10.3091263,11.7115578 L12.7203579,11.7115578 L14.0299842,15.7090452 M37.0650789,12.013206 C45.6983842,13.9488543 45.8228947,27.2954925 37.2262737,29.2918593 C29.4997158,31.0859749 23.6546263,24.407794 26.4482368,16.9776533 C27.8905737,13.1413618 32.4946579,10.9885528 37.0650789,12.013206 M33.7063158,15.4361357 C28.9300316,16.3631206 28.7722895,24.6089648 33.5071421,25.8438643 C36.6835632,26.6723166 39.3645316,24.2926231 39.3505053,20.6572864 C39.3366947,17.1325829 36.8443263,14.827005 33.7063158,15.4361357" id="path2" fill="#3F8AC9"></path>
                    <path d="M58.8982263,2.70100503 C58.8915368,4.16278894 58.8624053,7.17948744 58.8334895,9.4048995 L58.7810526,13.451005 L58.4385947,13.1458995 C58.2502105,12.978005 57.9880263,12.7958492 57.8559632,12.7409648 C57.7239,12.6860804 57.6157895,12.6117487 57.6157895,12.5754472 C57.6157895,12.5006834 56.8428316,12.179804 56.4505263,12.0916432 C56.3081053,12.0596633 56.1527368,12.0034824 56.1052632,11.9665327 C55.7338895,11.6791457 52.1815632,11.6303116 51.5736842,11.9045176 C51.4075263,11.9792814 51.0788789,12.1030955 50.8434526,12.1795879 C50.0538789,12.4356432 48.1762947,13.7742613 47.9656842,14.2310553 C47.9514421,14.2619548 47.8094526,14.4564271 47.6504158,14.6632161 C46.9812526,15.5320754 46.3446737,16.8704774 46.0738579,17.9778894 C45.8602263,18.8506382 45.8587158,22.1918894 46.0714842,23.1154171 C46.2881368,24.0555829 47.2995421,26.318593 47.5032474,26.318593 C47.5349684,26.318593 47.6161053,26.445 47.6836474,26.5994975 C48.0058211,27.3382764 49.8225526,28.7983317 50.8434526,29.1388744 C51.0788789,29.2175276 51.3104211,29.3117387 51.3578947,29.3484724 C51.8188211,29.7039246 56.0495895,29.7071658 56.3210526,29.3521457 C56.3447895,29.3212462 56.5972632,29.2246583 56.8821053,29.137794 C57.1669474,29.0507136 57.5236474,28.8864925 57.6747,28.7728342 C57.8259684,28.6589598 57.9813368,28.5647487 58.0199632,28.5634523 C58.0588053,28.5619397 58.2653158,28.4050653 58.4789474,28.2144824 L58.8673684,27.8678894 L58.8928316,28.4761558 L58.9180789,29.0844221 L61.1154632,29.0844221 L63.3126316,29.0844221 L63.3126316,14.5638191 L63.3126316,0.0432160804 L61.1115789,0.0432160804 L58.9105263,0.0432160804 L58.8982263,2.70100503 M64.8663158,14.5638191 L64.8663158,29.0844221 L67.0242105,29.0844221 L69.1821053,29.0844221 L69.1821053,14.5638191 L69.1821053,0.0432160804 L67.0242105,0.0432160804 L64.8663158,0.0432160804 L64.8663158,14.5638191 M78.2910105,11.7999347 C78.0551526,11.8414221 77.7832579,11.9127286 77.6868,11.9581055 C77.5903421,12.0032663 77.2493947,12.147392 76.9289474,12.2779045 C76.6085,12.4086332 76.3463158,12.5458442 76.3463158,12.5830101 C76.3463158,12.6201759 76.2748895,12.6733317 76.1874947,12.701206 C76.1001,12.7288643 75.8087842,12.9665528 75.5401263,13.2293065 L75.0515789,13.7068442 L75.0515789,12.9684975 L75.0515789,12.2301508 L72.8936842,12.2301508 L70.7357895,12.2301508 L70.7357895,20.6572864 L70.7357895,29.0844221 L72.8921737,29.0844221 L75.0485579,29.0844221 L75.0783368,24.6979899 C75.1018579,21.2314121 75.1361684,20.1451759 75.2425526,19.5181106 C75.3774211,18.7220704 75.6400368,17.756191 75.7434,17.6753769 C75.7740421,17.651608 75.9102053,17.4253719 76.0463684,17.1723417 C76.2703579,16.756603 76.4255105,16.5865477 77.0290737,16.0949648 C77.2597526,15.907191 78.0154474,15.601005 78.2485,15.601005 C78.3417211,15.601005 78.4178947,15.5621106 78.4178947,15.5145729 C78.4178947,15.4089095 80.0732158,15.3959447 80.1916842,15.5005276 C80.3457579,15.6368744 81.3327789,15.9488945 81.4575053,15.9009246 C81.5707947,15.8574925 81.9607263,13.0620603 81.9577053,12.3152864 C81.9557632,11.8310503 79.8190158,11.5306985 78.2910105,11.7999347 M55.7313,15.4942613 C55.7470526,15.5305628 55.9775158,15.6280151 56.2435842,15.7107739 C56.5094368,15.7933166 56.8165053,15.9387387 56.9256947,16.033598 C57.0348842,16.1284573 57.1555105,16.2060302 57.1934895,16.2060302 C57.2798053,16.2060302 58.1052,17.044206 58.3814105,17.4119749 C60.3412105,20.0226583 59.2536316,24.6798392 56.4718895,25.5884573 C56.2228684,25.6699196 55.9678053,25.7770955 55.9052263,25.8270101 C55.7535263,25.9473668 53.9044263,25.9402362 53.8295474,25.8190151 C53.7984737,25.7684523 53.6569158,25.6982261 53.5149263,25.6627889 C52.3377947,25.3689196 50.9030105,23.9529447 50.6104,22.7964824 C50.5592579,22.5944472 50.4878316,22.4291457 50.4517947,22.4291457 C50.1496895,22.4291457 50.1479632,19.2948995 50.4500684,18.9305879 C50.4912842,18.8808894 50.6112632,18.6071156 50.7167842,18.3225377 C50.8220895,18.0379598 50.9999,17.7121106 51.1116789,17.5986683 C51.2232421,17.4852261 51.3147368,17.355794 51.3147368,17.3110653 C51.3147368,16.9270905 52.931,15.7803518 53.6668421,15.6424925 C53.8448684,15.609 53.9905263,15.547201 53.9905263,15.5048492 C53.9905263,15.4115025 55.6907316,15.4009146 55.7313,15.4942613" id="path4" fill="#F08122"></path>
                </g>
                <text id="Admin-Panel" font-family="Roboto-Medium, Roboto" font-size="10" font-weight="400" fill="#7C7C7C">
                    <tspan x="49" y="44">Admin Panel</tspan>
                </text>
            </g>
        </g>
    </g>
</svg>