<svg id="svg" version="1.1" width="132" height="90" viewBox="0 0 400 400"
	xmlns="http://www.w3.org/2000/svg"
	xmlns:xlink="http://www.w3.org/1999/xlink" >
	<g id="svgg">
		<path id="path0" d="M45.600 153.406 C 45.600 153.519,46.753 156.624,48.162 160.306 C 49.572 163.988,52.559 171.860,54.800 177.800 C 63.598 201.114,68.151 213.154,69.473 216.600 C 70.233 218.580,71.276 221.370,71.791 222.800 C 72.306 224.230,73.565 227.560,74.590 230.200 C 80.429 245.248,80.305 244.769,79.040 247.354 C 73.717 258.234,61.242 271.235,52.476 275.039 C 48.908 276.587,48.840 276.729,50.132 279.910 C 52.716 286.269,58.845 291.385,62.629 290.342 C 69.975 288.317,80.815 279.132,87.522 269.250 C 95.882 256.933,102.138 242.281,116.830 200.600 C 117.451 198.840,118.757 195.150,119.732 192.400 C 128.427 167.896,133.200 154.194,133.200 153.740 C 133.200 153.300,131.239 153.200,122.619 153.200 L 112.038 153.200 111.662 154.500 C 111.455 155.215,109.550 161.740,107.429 169.000 C 105.307 176.260,103.021 184.090,102.349 186.400 C 101.677 188.710,100.615 192.310,99.990 194.400 C 97.601 202.388,95.994 208.041,94.191 214.800 C 91.554 224.688,91.148 226.081,90.957 225.890 C 90.864 225.797,89.977 222.679,88.985 218.960 C 87.268 212.518,84.938 204.891,81.605 194.800 C 80.769 192.270,77.355 181.875,74.017 171.700 L 67.948 153.200 56.774 153.200 C 50.628 153.200,45.600 153.293,45.600 153.406 M160.000 154.369 C 119.128 162.345,117.434 224.076,157.804 234.401 C 189.626 242.540,215.815 218.732,210.476 186.518 C 206.641 163.379,184.874 149.515,160.000 154.369 M175.173 170.618 C 192.108 174.610,197.294 201.647,183.540 214.239 C 172.230 224.594,153.490 218.584,149.238 203.239 C 143.824 183.701,157.532 166.460,175.173 170.618 " stroke="none" fill="#ffffff" fill-rule="evenodd"></path>
		<path id="path1" d="" stroke="none" fill="#0000ff" fill-rule="evenodd"></path>
		<path id="path2" d="M75.000 124.248 C 73.240 124.565,71.740 124.999,71.667 125.212 C 71.593 125.425,71.279 125.600,70.968 125.600 C 70.172 125.600,65.505 127.223,64.884 127.716 C 64.600 127.941,63.477 128.537,62.390 129.041 C 61.302 129.545,60.015 130.327,59.531 130.779 C 59.046 131.230,58.458 131.603,58.225 131.608 C 57.991 131.612,57.082 132.242,56.204 133.008 C 55.327 133.773,54.511 134.400,54.391 134.400 C 53.730 134.400,45.616 143.135,45.606 143.857 C 45.603 144.109,45.338 144.415,45.018 144.538 C 44.698 144.661,44.044 145.535,43.564 146.481 C 43.085 147.426,42.547 148.294,42.370 148.409 C 42.193 148.524,41.615 149.551,41.086 150.693 C 40.558 151.834,39.941 153.000,39.716 153.284 C 39.491 153.568,38.915 154.880,38.436 156.200 C 37.957 157.520,37.279 159.219,36.928 159.975 C 36.578 160.731,35.894 163.251,35.407 165.575 C 34.921 167.899,34.360 170.160,34.161 170.600 C 33.557 171.938,33.693 250.098,34.300 250.300 C 34.575 250.392,34.802 250.947,34.804 251.533 C 34.809 253.099,36.725 261.285,37.196 261.756 C 37.716 262.276,37.718 264.606,37.199 265.505 C 36.979 265.887,36.259 267.370,35.598 268.800 C 31.610 277.438,22.363 289.483,17.920 291.830 C 17.326 292.143,16.696 292.628,16.520 292.907 C 16.196 293.421,12.322 295.668,10.300 296.515 C 9.695 296.768,9.200 297.119,9.200 297.295 C 9.200 297.471,46.685 297.560,92.500 297.492 C 176.851 297.369,177.334 297.360,180.200 296.008 C 180.640 295.801,182.080 295.328,183.400 294.959 C 186.901 293.979,193.870 290.184,196.899 287.608 C 197.292 287.274,198.248 286.460,199.022 285.800 C 202.042 283.226,206.428 278.522,207.366 276.852 C 207.567 276.493,207.853 276.110,208.000 276.000 C 208.148 275.890,208.785 274.900,209.415 273.800 C 210.046 272.700,210.670 271.710,210.802 271.600 C 211.322 271.168,214.409 264.477,215.047 262.400 C 215.418 261.190,215.850 260.020,216.006 259.800 C 216.771 258.724,218.392 249.843,218.397 246.700 C 218.399 245.655,218.580 244.800,218.800 244.800 C 219.064 244.800,219.200 233.067,219.200 210.400 C 219.200 187.733,219.064 176.000,218.800 176.000 C 218.580 176.000,218.400 175.208,218.400 174.240 C 218.400 171.826,216.928 163.405,216.235 161.861 C 215.925 161.167,215.357 159.610,214.975 158.400 C 214.260 156.139,211.406 150.005,210.890 149.617 C 210.730 149.498,210.171 148.590,209.646 147.600 C 209.122 146.610,208.489 145.620,208.241 145.400 C 207.992 145.180,207.449 144.460,207.034 143.800 C 205.216 140.912,196.114 132.000,194.982 132.000 C 194.814 132.000,194.119 131.584,193.438 131.076 C 190.476 128.863,183.346 125.600,181.473 125.600 C 181.103 125.600,180.800 125.439,180.800 125.242 C 180.800 123.530,84.033 122.622,75.000 124.248 M74.017 171.700 C 77.355 181.875,80.769 192.270,81.605 194.800 C 84.938 204.891,87.268 212.518,88.985 218.960 C 89.977 222.679,90.864 225.797,90.957 225.890 C 91.148 226.081,91.554 224.688,94.191 214.800 C 95.994 208.041,97.601 202.388,99.990 194.400 C 100.615 192.310,101.677 188.710,102.349 186.400 C 103.021 184.090,105.307 176.260,107.429 169.000 C 109.550 161.740,111.455 155.215,111.662 154.500 L 112.038 153.200 122.619 153.200 C 131.239 153.200,133.200 153.300,133.200 153.740 C 133.200 154.194,128.427 167.896,119.732 192.400 C 118.757 195.150,117.451 198.840,116.830 200.600 C 102.138 242.281,95.882 256.933,87.522 269.250 C 80.815 279.132,69.975 288.317,62.629 290.342 C 58.845 291.385,52.716 286.269,50.132 279.910 C 48.840 276.729,48.908 276.587,52.476 275.039 C 61.242 271.235,73.717 258.234,79.040 247.354 C 80.305 244.769,80.429 245.248,74.590 230.200 C 73.565 227.560,72.306 224.230,71.791 222.800 C 71.276 221.370,70.233 218.580,69.473 216.600 C 68.151 213.154,63.598 201.114,54.800 177.800 C 52.559 171.860,49.572 163.988,48.162 160.306 C 46.753 156.624,45.600 153.519,45.600 153.406 C 45.600 153.293,50.628 153.200,56.774 153.200 L 67.948 153.200 74.017 171.700 M180.765 154.596 C 220.773 163.554,221.350 225.321,181.512 234.560 C 145.706 242.863,118.619 211.957,131.565 177.571 C 138.249 159.817,159.585 149.854,180.765 154.596 M165.200 170.437 C 143.066 174.727,142.335 212.888,164.277 218.603 C 178.997 222.437,191.421 211.424,191.356 194.600 C 191.292 178.288,179.742 167.618,165.200 170.437 " stroke="none" fill="#2196F3" fill-rule="evenodd"></path>
		<path id="path3" d="" stroke="none" fill="#ff0000" fill-rule="evenodd"></path>
		<path id="path4" d="M281.943 111.500 C 281.912 118.265,281.777 132.226,281.643 142.525 L 281.400 161.250 279.813 159.838 C 278.940 159.061,277.725 158.218,277.113 157.964 C 276.501 157.710,276.000 157.366,276.000 157.198 C 276.000 156.852,272.418 155.367,270.600 154.959 C 269.940 154.811,269.220 154.551,269.000 154.380 C 267.279 153.050,250.817 152.824,248.000 154.093 C 247.230 154.439,245.707 155.012,244.616 155.366 C 240.957 156.551,232.256 162.746,231.280 164.860 C 231.214 165.003,230.556 165.903,229.819 166.860 C 226.718 170.881,223.768 177.075,222.513 182.200 C 221.523 186.239,221.516 201.702,222.502 205.976 C 223.506 210.327,228.193 220.800,229.137 220.800 C 229.284 220.800,229.660 221.385,229.973 222.100 C 231.466 225.519,239.885 232.276,244.616 233.852 C 245.707 234.216,246.780 234.652,247.000 234.822 C 249.136 236.467,268.742 236.482,270.000 234.839 C 270.110 234.696,271.280 234.249,272.600 233.847 C 273.920 233.444,275.573 232.684,276.273 232.158 C 276.974 231.631,277.694 231.195,277.873 231.189 C 278.053 231.182,279.010 230.456,280.000 229.574 L 281.800 227.970 281.918 230.785 L 282.035 233.600 292.218 233.600 L 302.400 233.600 302.400 166.400 L 302.400 99.200 292.200 99.200 L 282.000 99.200 281.943 111.500 M309.600 166.400 L 309.600 233.600 319.600 233.600 L 329.600 233.600 329.600 166.400 L 329.600 99.200 319.600 99.200 L 309.600 99.200 309.600 166.400 M371.812 153.609 C 370.719 153.801,369.459 154.131,369.012 154.341 C 368.565 154.550,366.985 155.217,365.500 155.821 C 364.015 156.426,362.800 157.061,362.800 157.233 C 362.800 157.405,362.469 157.651,362.064 157.780 C 361.659 157.908,360.309 159.008,359.064 160.224 L 356.800 162.434 356.800 159.017 L 356.800 155.600 346.800 155.600 L 336.800 155.600 336.800 194.600 L 336.800 233.600 346.793 233.600 L 356.786 233.600 356.924 213.300 C 357.033 197.257,357.192 192.230,357.685 189.328 C 358.310 185.644,359.527 181.174,360.006 180.800 C 360.148 180.690,360.779 179.643,361.410 178.472 C 362.448 176.548,363.167 175.761,365.964 173.486 C 367.033 172.617,370.535 171.200,371.615 171.200 C 372.047 171.200,372.400 171.020,372.400 170.800 C 372.400 170.311,380.071 170.251,380.620 170.735 C 381.334 171.366,385.908 172.810,386.486 172.588 C 387.011 172.387,388.818 159.450,388.804 155.994 C 388.795 153.753,378.893 152.363,371.812 153.609 M267.267 170.706 C 267.340 170.874,268.408 171.325,269.641 171.708 C 270.873 172.090,272.296 172.763,272.802 173.202 C 273.308 173.641,273.867 174.000,274.043 174.000 C 274.443 174.000,278.268 177.879,279.548 179.581 C 288.630 191.663,283.590 213.216,270.699 217.421 C 269.545 217.798,268.363 218.294,268.073 218.525 C 267.370 219.082,258.801 219.049,258.454 218.488 C 258.310 218.254,257.654 217.929,256.996 217.765 C 251.541 216.405,244.892 209.852,243.536 204.500 C 243.299 203.565,242.968 202.800,242.801 202.800 C 241.401 202.800,241.393 188.295,242.793 186.609 C 242.984 186.379,243.540 185.112,244.029 183.795 C 244.517 182.478,245.341 180.970,245.859 180.445 C 246.376 179.920,246.800 179.321,246.800 179.114 C 246.800 177.337,254.290 172.030,257.700 171.392 C 258.525 171.237,259.200 170.951,259.200 170.755 C 259.200 170.323,267.079 170.274,267.267 170.706 " stroke="none" fill="#FF9800" fill-rule="evenodd"></path>
	</g>
</svg>